<svg width="19" height="19" viewBox="0 0 19 19" fill="none" xmlns="http://www.w3.org/2000/svg">
<g clip-path="url(#clip0_183_199)">
<path d="M13.0246 0.714273C13.0655 0.714273 13.1064 0.714273 13.1496 0.714273C13.2499 1.95345 12.7769 2.87936 12.2021 3.54987C11.638 4.21575 10.8657 4.86157 9.61648 4.76358C9.53315 3.54215 10.0069 2.68491 10.581 2.01595C11.1134 1.3925 12.0894 0.837727 13.0246 0.714273Z" fill="black"/>
<path d="M16.8058 13.6122C16.8058 13.6246 16.8058 13.6354 16.8058 13.6469C16.4547 14.7102 15.954 15.6214 15.3429 16.4671C14.785 17.2348 14.1014 18.268 12.8807 18.268C11.826 18.268 11.1254 17.5898 10.0444 17.5713C8.90087 17.5527 8.27203 18.1384 7.22652 18.2858C7.10692 18.2858 6.98733 18.2858 6.87005 18.2858C6.10231 18.1746 5.48273 17.5666 5.03135 17.0188C3.70035 15.4 2.67182 13.309 2.48047 10.6331C2.48047 10.3708 2.48047 10.1092 2.48047 9.84687C2.56149 7.93178 3.49202 6.37471 4.72888 5.62009C5.38165 5.21887 6.27901 4.87705 7.27822 5.02983C7.70645 5.09618 8.14394 5.24279 8.52742 5.38785C8.89084 5.5275 9.34531 5.77518 9.77586 5.76207C10.0675 5.75358 10.3576 5.60158 10.6516 5.49433C11.5127 5.18337 12.3568 4.8269 13.4695 4.99433C14.8066 5.19649 15.7557 5.79062 16.3421 6.70727C15.2109 7.42716 14.3167 8.51201 14.4694 10.3646C14.6052 12.0474 15.5836 13.032 16.8058 13.6122Z" fill="black"/>
</g>
<defs>
<clipPath id="clip0_183_199">
<rect width="17.5714" height="17.5714" fill="white" transform="translate(0.857422 0.714272)"/>
</clipPath>
</defs>
</svg>
