<svg width="21" height="20" viewBox="0 0 21 20" fill="none" xmlns="http://www.w3.org/2000/svg">
<path d="M10.3647 4.36844C11.7431 4.34628 13.0749 4.86688 14.0729 5.81794L16.8307 3.06011C15.081 1.41808 12.7641 0.516304 10.3647 0.543449C8.57377 0.543163 6.81803 1.04084 5.29365 1.98088C3.76926 2.92091 2.53627 4.26628 1.73242 5.86667L4.94568 8.35813C5.31788 7.2097 6.04099 6.20699 7.01316 5.49124C7.98533 4.7755 9.15755 4.38279 10.3647 4.36844Z" fill="#EA4335"/>
<path d="M19.6172 10.4277C19.6141 9.81406 19.5629 9.20158 19.4642 8.5959H10.3647V12.2276H15.5745C15.4617 12.813 15.2334 13.3701 14.9031 13.8664C14.5727 14.3627 14.1468 14.7882 13.6503 15.1182L16.7593 17.534C17.7041 16.6138 18.4463 15.5063 18.9382 14.2826C19.4302 13.0589 19.6612 11.7459 19.6163 10.4277H19.6172Z" fill="#4285F4"/>
<path d="M4.94224 12.0554C4.74194 11.4595 4.63867 10.8353 4.63637 10.2067C4.6367 9.57795 4.74002 8.95348 4.94224 8.3581L1.72897 5.86665C1.05249 7.21354 0.700195 8.69992 0.700195 10.2072C0.700195 11.7144 1.05249 13.2008 1.72897 14.5477L4.94224 12.0554Z" fill="#FBBC05"/>
<path d="M10.3655 19.8701C12.719 19.9381 15.0089 19.1008 16.7634 17.5307L13.6544 15.1149C12.6764 15.7448 11.5318 16.0668 10.3688 16.0392C9.16096 16.0251 7.98785 15.6329 7.01446 14.9175C6.04108 14.2022 5.31638 13.1998 4.94227 12.0512L1.729 14.5435C2.53317 16.1448 3.76672 17.4909 5.29185 18.4316C6.81698 19.3722 8.57361 19.8702 10.3655 19.8701Z" fill="#34A853"/>
</svg>
