<svg width="25" height="20" viewBox="0 0 25 20" fill="none" xmlns="http://www.w3.org/2000/svg">
<path d="M24.1159 2.38128C23.2169 2.77389 22.266 3.03471 21.2925 3.15569C22.3187 2.54717 23.0858 1.58311 23.4483 0.446456C22.4878 1.01655 21.4368 1.41805 20.3409 1.63357C19.6693 0.915353 18.7972 0.415849 17.8379 0.200023C16.8786 -0.0158023 15.8765 0.0620404 14.9621 0.423426C14.0476 0.784812 13.263 1.41301 12.7105 2.22633C12.1579 3.03964 11.8628 4.00042 11.8636 4.9837C11.8602 5.35901 11.8984 5.73355 11.9777 6.10041C10.0283 6.00466 8.12094 5.49872 6.38033 4.61566C4.63972 3.73259 3.10497 2.49226 1.87635 0.97568C1.24482 2.05454 1.04917 3.33386 1.32938 4.55215C1.60959 5.77045 2.3445 6.83574 3.38391 7.53028C2.60809 7.50937 1.84871 7.30204 1.16991 6.9258V6.97921C1.17209 8.11007 1.56352 9.2057 2.27839 10.0819C2.99326 10.9582 3.988 11.5616 5.09539 11.7908C4.67631 11.9009 4.24445 11.9548 3.81117 11.951C3.49918 11.9568 3.18748 11.9291 2.88139 11.8685C3.19865 12.841 3.80945 13.6914 4.62977 14.3026C5.4501 14.9138 6.43965 15.2559 7.46233 15.2817C5.7293 16.6363 3.59286 17.3721 1.39325 17.3719C1.00133 17.3752 0.609615 17.3525 0.220703 17.3039C2.46352 18.75 5.07781 19.514 7.74636 19.5034C16.765 19.5034 21.6955 12.0335 21.6955 5.55905C21.6955 5.34299 21.6955 5.13421 21.6785 4.92544C22.6388 4.23244 23.4647 3.37031 24.1159 2.38128Z" fill="white"/>
</svg>
